<svg clip-rule="evenodd" fill-rule="evenodd" stroke-linejoin="round" stroke-miterlimit="2" viewBox="0 0 24 24" xmlns="http://www.w3.org/2000/svg"><path d="m14.123 19.336c-.468.453-.944.913-1.426 1.381-.194.189-.446.283-.697.283s-.503-.094-.697-.283c-4.958-4.813-9.303-8.815-9.303-12.54 0-5.659 7.376-6.978 10-2.461 2.604-4.483 10-3.217 10 2.461 0 .68-.144 1.369-.41 2.07-1.061-1.02-2.503-1.648-4.09-1.648-3.256 0-5.9 2.644-5.9 5.9 0 2 .998 3.77 2.523 4.837zm3.378-9.336c2.58 0 4.499 2.107 4.499 4.499 0 2.58-2.105 4.499-4.499 4.499-2.586 0-4.5-2.112-4.5-4.499 0-2.406 1.934-4.499 4.5-4.499zm.5 3.999v-1.5c0-.265-.235-.5-.5-.5-.266 0-.5.235-.5.5v1.5h-1.5c-.266 0-.5.235-.5.5s.234.5.5.5h1.5v1.5c0 .265.234.5.5.5.265 0 .5-.235.5-.5v-1.5h1.499c.266 0 .5-.235.5-.5s-.234-.5-.5-.5z" fill-rule="nonzero"/></svg>